<svg width="46" height="58" viewBox="0 0 46 58" fill="none" xmlns="http://www.w3.org/2000/svg">
<path d="M33.9588 24.5785C34.1452 15.2101 19.9146 16.4976 23.5739 0.200195C23.5739 0.200195 14.0191 3.96114 15.6962 15.4981C16.2722 19.4623 14.8831 22.427 14.8831 22.427C13.4769 22.715 11.2915 19.9197 12.0539 15.5997C12.0539 15.5997 7.03929 19.3437 7.03929 24.155C7.03929 28.9663 9.36024 34.0656 9.36024 34.0656C3.58329 32.812 4.15929 25.019 4.15929 25.019C4.15929 25.019 0.5 29.915 0.5 39.148C0.5 46.331 8.59788 57.8002 21.6595 57.8002C34.7212 57.8002 45.2078 47.6694 45.2078 38.6567C45.2078 34.7094 43.8694 29.6101 40.9725 26.8317C40.9725 26.8317 41.3621 34.7094 37.4656 34.3367C37.4656 34.3367 40.6845 24.0534 37.3132 19.3437C37.3132 19.3437 35.6868 24.4261 33.9588 24.5785Z" fill="url(#paint0_linear_111_633)"/>
<path d="M33.9758 17.5139C37.7706 10.5172 28.3682 9.55159 28.3513 5.24854C28.3513 5.24854 26.6911 9.68712 30.6553 12.7196C33.891 15.1761 33.9758 17.5139 33.9758 17.5139Z" fill="url(#paint1_linear_111_633)"/>
<path d="M14.0191 4.13037C12.5791 5.55343 14.5612 11.432 10.0548 13.753C10.0548 13.753 8.53012 7.29837 14.0191 4.13037Z" fill="url(#paint2_linear_111_633)"/>
<path opacity="0.5" d="M3.46471 27.3741C2.21106 29.5257 0.5 33.5068 0.5 39.1482C0.5 45.4504 8.53012 57.0381 21.6595 57.0381C34.484 57.0381 44.4454 47.1614 44.4454 38.6739C44.4454 35.6075 43.5984 31.6941 41.7179 28.9158C41.5824 30.6607 41.1588 33.0325 39.8544 34.2692C39.1767 34.913 38.3297 35.201 37.3979 35.0993L36.4492 35.0146L36.7372 34.1167C36.7711 34.032 39.2275 26.0019 37.4487 21.2414C36.7372 22.9864 35.5174 25.2395 34.0266 25.3581L33.1795 25.4259L33.1965 24.5788C33.2642 21.072 31.1127 19.2085 28.6224 17.0569C25.0647 13.9737 21.0496 10.4838 22.5235 1.62354C20.0501 3.08048 15.2388 7.09553 16.4416 15.3798C17.0515 19.5304 15.6115 22.6137 15.5607 22.7492L15.3913 23.1049L15.0186 23.1727C14.3071 23.3082 13.5616 23.0202 12.884 22.3765C11.9692 21.4786 11.1391 19.7845 11.1052 17.4805C9.716 18.9035 7.80165 21.36 7.80165 24.1553C7.80165 28.7464 10.0379 33.6932 10.0548 33.744L10.6816 35.1332L9.19082 34.8113C5.29435 33.9642 3.83741 30.3388 3.46471 27.3741Z" fill="url(#paint3_linear_111_633)"/>
<path d="M28.3514 5.24854C28.0126 7.80665 29.0291 11.4829 30.6554 12.7196C32.1463 13.8547 33.8234 15.8029 33.959 17.5139C36.5001 12.5332 32.9255 10.6867 30.8757 9.95818C30.0117 9.65324 28.4192 7.87442 28.3514 5.24854Z" fill="url(#paint4_radial_111_633)"/>
<path d="M20.5414 4.52002C14.9169 13.3294 22.2186 22.6301 18.4576 28.2038C14.6967 33.7774 10.8849 28.6273 10.6308 25.1374C10.6308 25.1374 10.6647 36.4203 16.2383 40.8758C21.812 45.3313 5.51456 44.3657 3.27832 38.9276C3.27832 38.9276 3.27832 57.0377 21.6595 57.0377C40.0407 57.0377 43.107 40.1812 43.107 40.1812C43.107 40.1812 36.4153 45.8904 31.9597 41.4348C31.9597 41.4348 35.2971 35.5901 36.1442 29.593C36.1442 29.593 33.8402 31.0499 30.2995 30.4908C30.2995 30.4908 32.2647 22.0711 28.2496 19.3097C23.0995 15.769 18.7456 7.33225 20.5414 4.52002Z" fill="url(#paint5_linear_111_633)"/>
<path d="M21.9474 14.8882C18.9997 18.7677 24.7427 28.7291 18.7117 32.6764C15.3742 34.8618 13.4599 32.2359 13.4599 32.2359C13.4599 32.2359 14.3578 36.2679 17.9493 39.8595C21.5408 43.451 12.5451 48.3131 5.24341 42.0279C5.24341 42.0279 7.7507 57.1225 24.7427 54.5813C43.4966 51.7861 42.1074 37.8435 42.1074 37.8435C42.1074 37.8435 37.0251 45.8397 29.7912 42.011C29.7912 42.011 34.3484 35.6581 34.3484 32.0157C34.3484 32.0157 31.2651 33.8454 27.7413 32.0835C27.7413 32.0835 29.4185 23.6129 27.4194 22.3423C22.6251 19.2759 21.9474 14.8882 21.9474 14.8882Z" fill="url(#paint6_linear_111_633)"/>
<path opacity="0.5" d="M33.9588 24.5785C34.1452 15.2101 19.9146 16.4976 23.5739 0.200195C23.5739 0.200195 14.0191 3.96114 15.6962 15.4981C16.2722 19.4623 14.8831 22.427 14.8831 22.427C13.4769 22.715 11.2915 19.9197 12.0539 15.5997C12.0539 15.5997 7.03929 19.3437 7.03929 24.155C7.03929 28.9663 9.36024 34.0656 9.36024 34.0656C3.58329 32.812 4.15929 25.019 4.15929 25.019C4.15929 25.019 0.5 29.915 0.5 39.148C0.5 46.331 8.59788 57.8002 21.6595 57.8002C34.7212 57.8002 45.2078 47.6694 45.2078 38.6567C45.2078 34.7094 43.8694 29.6101 40.9725 26.8317C40.9725 26.8317 41.3621 34.7094 37.4656 34.3367C37.4656 34.3367 40.6845 24.0534 37.3132 19.3437C37.3132 19.3437 35.6868 24.4261 33.9588 24.5785Z" fill="url(#paint7_radial_111_633)"/>
<path opacity="0.5" d="M33.9588 24.5785C34.1452 15.2101 19.9146 16.4976 23.5739 0.200195C23.5739 0.200195 14.0191 3.96114 15.6962 15.4981C16.2722 19.4623 14.8831 22.427 14.8831 22.427C13.4769 22.715 11.2915 19.9197 12.0539 15.5997C12.0539 15.5997 7.03929 19.3437 7.03929 24.155C7.03929 28.9663 9.36024 34.0656 9.36024 34.0656C3.58329 32.812 4.15929 25.019 4.15929 25.019C4.15929 25.019 0.5 29.915 0.5 39.148C0.5 46.331 8.59788 57.8002 21.6595 57.8002C34.7212 57.8002 45.2078 47.6694 45.2078 38.6567C45.2078 34.7094 43.8694 29.6101 40.9725 26.8317C40.9725 26.8317 41.3621 34.7094 37.4656 34.3367C37.4656 34.3367 40.6845 24.0534 37.3132 19.3437C37.3132 19.3437 35.6868 24.4261 33.9588 24.5785Z" fill="url(#paint8_radial_111_633)"/>
<path d="M1.65186 35.2177C2.0415 44.7895 9.91915 56.2587 22.2354 56.2587C34.5516 56.2587 40.7013 43.2648 41.0909 35.6582C41.0909 35.6582 38.7869 40.1307 33.586 41.0286C28.385 41.9265 33.9417 32.0836 30.2994 26.2559C30.2994 26.2559 27.0806 36.4036 22.5064 36.7763C17.9323 37.149 14.0528 30.0676 14.0528 26.2559C14.0528 26.2559 11.2406 33.117 11.9351 38.5721C13.0024 46.8563 1.65186 35.2177 1.65186 35.2177Z" fill="url(#paint9_radial_111_633)"/>
<path opacity="0.5" d="M33.9588 24.5785C34.1452 15.2101 19.9146 16.4976 23.5739 0.200195C23.5739 0.200195 14.0191 3.96114 15.6962 15.4981C16.2722 19.4623 14.8831 22.427 14.8831 22.427C13.4769 22.715 11.2915 19.9197 12.0539 15.5997C12.0539 15.5997 7.03929 19.3437 7.03929 24.155C7.03929 28.9663 9.36024 34.0656 9.36024 34.0656C3.58329 32.812 4.15929 25.019 4.15929 25.019C4.15929 25.019 0.5 29.915 0.5 39.148C0.5 46.331 8.59788 57.8002 21.6595 57.8002C34.7212 57.8002 45.2078 47.6694 45.2078 38.6567C45.2078 34.7094 43.8694 29.6101 40.9725 26.8317C40.9725 26.8317 41.3621 34.7094 37.4656 34.3367C37.4656 34.3367 40.6845 24.0534 37.3132 19.3437C37.3132 19.3437 35.6868 24.4261 33.9588 24.5785Z" fill="url(#paint10_radial_111_633)"/>
<path opacity="0.5" d="M33.9758 17.5139C37.7706 10.5172 28.3682 9.55159 28.3513 5.24854C28.3513 5.24854 26.6911 9.68712 30.6553 12.7196C33.891 15.1761 33.9758 17.5139 33.9758 17.5139Z" fill="url(#paint11_radial_111_633)"/>
<path d="M14.0191 4.13037C12.596 5.55343 13.5108 10.0428 10.0548 13.753C10.0548 13.753 8.53012 7.29837 14.0191 4.13037Z" fill="url(#paint12_radial_111_633)"/>
<path opacity="0.5" d="M14.0191 4.13037C12.5791 5.55343 14.5612 11.432 10.0548 13.753C10.0548 13.753 8.53012 7.29837 14.0191 4.13037Z" fill="url(#paint13_radial_111_633)"/>
<path opacity="0.5" d="M33.9588 24.5785C34.1452 15.2101 19.9146 16.4976 23.5739 0.200195C23.5739 0.200195 14.0191 3.96114 15.6962 15.4981C16.2722 19.4623 14.8831 22.427 14.8831 22.427C13.4769 22.715 11.2915 19.9197 12.0539 15.5997C12.0539 15.5997 7.03929 19.3437 7.03929 24.155C7.03929 28.9663 9.36024 34.0656 9.36024 34.0656C3.58329 32.812 4.15929 25.019 4.15929 25.019C4.15929 25.019 0.5 29.915 0.5 39.148C0.5 46.331 8.59788 57.8002 21.6595 57.8002C34.7212 57.8002 45.2078 47.6694 45.2078 38.6567C45.2078 34.7094 43.8694 29.6101 40.9725 26.8317C40.9725 26.8317 41.3621 34.7094 37.4656 34.3367C37.4656 34.3367 40.6845 24.0534 37.3132 19.3437C37.3132 19.3437 35.6868 24.4261 33.9588 24.5785Z" fill="url(#paint14_radial_111_633)"/>
<path opacity="0.25" d="M33.9588 24.5785C34.1452 15.2101 19.9146 16.4976 23.5739 0.200195C23.5739 0.200195 14.0191 3.96114 15.6962 15.4981C16.2722 19.4623 14.8831 22.427 14.8831 22.427C13.4769 22.715 11.2915 19.9197 12.0539 15.5997C12.0539 15.5997 7.03929 19.3437 7.03929 24.155C7.03929 28.9663 9.36024 34.0656 9.36024 34.0656C3.58329 32.812 4.15929 25.019 4.15929 25.019C4.15929 25.019 0.5 29.915 0.5 39.148C0.5 46.331 8.59788 57.8002 21.6595 57.8002C34.7212 57.8002 45.2078 47.6694 45.2078 38.6567C45.2078 34.7094 43.8694 29.6101 40.9725 26.8317C40.9725 26.8317 41.3621 34.7094 37.4656 34.3367C37.4656 34.3367 40.6845 24.0534 37.3132 19.3437C37.3132 19.3437 35.6868 24.4261 33.9588 24.5785Z" fill="url(#paint15_radial_111_633)"/>
<path opacity="0.25" d="M33.9588 24.5785C34.1452 15.2101 19.9146 16.4976 23.5739 0.200195C23.5739 0.200195 14.0191 3.96114 15.6962 15.4981C16.2722 19.4623 14.8831 22.427 14.8831 22.427C13.4769 22.715 11.2915 19.9197 12.0539 15.5997C12.0539 15.5997 7.03929 19.3437 7.03929 24.155C7.03929 28.9663 9.36024 34.0656 9.36024 34.0656C3.58329 32.812 4.15929 25.019 4.15929 25.019C4.15929 25.019 0.5 29.915 0.5 39.148C0.5 46.331 8.59788 57.8002 21.6595 57.8002C34.7212 57.8002 45.2078 47.6694 45.2078 38.6567C45.2078 34.7094 43.8694 29.6101 40.9725 26.8317C40.9725 26.8317 41.3621 34.7094 37.4656 34.3367C37.4656 34.3367 40.6845 24.0534 37.3132 19.3437C37.3132 19.3437 35.6868 24.4261 33.9588 24.5785Z" fill="url(#paint16_radial_111_633)"/>
<path opacity="0.25" d="M33.9588 24.5785C34.1452 15.2101 19.9146 16.4976 23.5739 0.200195C23.5739 0.200195 14.0191 3.96114 15.6962 15.4981C16.2722 19.4623 14.8831 22.427 14.8831 22.427C13.4769 22.715 11.2915 19.9197 12.0539 15.5997C12.0539 15.5997 7.03929 19.3437 7.03929 24.155C7.03929 28.9663 9.36024 34.0656 9.36024 34.0656C3.58329 32.812 4.15929 25.019 4.15929 25.019C4.15929 25.019 0.5 29.915 0.5 39.148C0.5 46.331 8.59788 57.8002 21.6595 57.8002C34.7212 57.8002 45.2078 47.6694 45.2078 38.6567C45.2078 34.7094 43.8694 29.6101 40.9725 26.8317C40.9725 26.8317 41.3621 34.7094 37.4656 34.3367C37.4656 34.3367 40.6845 24.0534 37.3132 19.3437C37.3132 19.3437 35.6868 24.4261 33.9588 24.5785Z" fill="url(#paint17_radial_111_633)"/>
<defs>
<linearGradient id="paint0_linear_111_633" x1="25.7188" y1="59.3922" x2="15.3335" y2="-15.8692" gradientUnits="userSpaceOnUse">
<stop stop-color="#FF0000"/>
<stop offset="0.2317" stop-color="#FF1500"/>
<stop offset="0.7367" stop-color="#FF3D00"/>
<stop offset="0.9987" stop-color="#FF4C00"/>
</linearGradient>
<linearGradient id="paint1_linear_111_633" x1="37.8882" y1="57.7129" x2="27.5029" y2="-17.5486" gradientUnits="userSpaceOnUse">
<stop stop-color="#FF0000"/>
<stop offset="0.2317" stop-color="#FF1500"/>
<stop offset="0.7367" stop-color="#FF3D00"/>
<stop offset="0.9987" stop-color="#FF4C00"/>
</linearGradient>
<linearGradient id="paint2_linear_111_633" x1="19.1115" y1="60.3038" x2="8.72619" y2="-14.9576" gradientUnits="userSpaceOnUse">
<stop stop-color="#FF0000"/>
<stop offset="0.2317" stop-color="#FF1500"/>
<stop offset="0.7367" stop-color="#FF3D00"/>
<stop offset="0.9987" stop-color="#FF4C00"/>
</linearGradient>
<linearGradient id="paint3_linear_111_633" x1="25.439" y1="46.5725" x2="2.74515" y2="-18.2395" gradientUnits="userSpaceOnUse">
<stop stop-color="#FF8000"/>
<stop offset="0.6388" stop-color="#FF5B00"/>
<stop offset="0.9987" stop-color="#FF4C00"/>
</linearGradient>
<radialGradient id="paint4_radial_111_633" cx="0" cy="0" r="1" gradientUnits="userSpaceOnUse" gradientTransform="translate(35.1585 -6.17419) scale(30.2417)">
<stop offset="0.00134333" stop-color="#FFED1C" stop-opacity="0.6"/>
<stop offset="0.9477" stop-color="#FFED1C" stop-opacity="0.0264782"/>
<stop offset="0.9914" stop-color="#FFED1C" stop-opacity="0"/>
</radialGradient>
<linearGradient id="paint5_linear_111_633" x1="16.6266" y1="3.32245" x2="24.8323" y2="49.3512" gradientUnits="userSpaceOnUse">
<stop stop-color="#FF8000"/>
<stop offset="0.022669" stop-color="#FE7F02" stop-opacity="0.9773"/>
<stop offset="0.6663" stop-color="#ED582A" stop-opacity="0.3337"/>
<stop offset="1" stop-color="#E74939" stop-opacity="0"/>
</linearGradient>
<linearGradient id="paint6_linear_111_633" x1="22.9986" y1="53.0615" x2="24.7722" y2="20.7422" gradientUnits="userSpaceOnUse">
<stop stop-color="#FFBC47"/>
<stop offset="0.1869" stop-color="#FFB137" stop-opacity="0.8131"/>
<stop offset="0.7223" stop-color="#FF940F" stop-opacity="0.2777"/>
<stop offset="1" stop-color="#FF8900" stop-opacity="0"/>
</linearGradient>
<radialGradient id="paint7_radial_111_633" cx="0" cy="0" r="1" gradientUnits="userSpaceOnUse" gradientTransform="translate(22.5578 44.3395) scale(23.3937 18.991)">
<stop offset="0.00134333" stop-color="#FFBC47"/>
<stop offset="0.2941" stop-color="#FFBF4B" stop-opacity="0.7068"/>
<stop offset="0.5624" stop-color="#FEC656" stop-opacity="0.4382"/>
<stop offset="0.8201" stop-color="#FCD368" stop-opacity="0.1801"/>
<stop offset="1" stop-color="#FBE07A" stop-opacity="0"/>
</radialGradient>
<radialGradient id="paint8_radial_111_633" cx="0" cy="0" r="1" gradientUnits="userSpaceOnUse" gradientTransform="translate(22.5578 43.3779) scale(22.6728 18.4058)">
<stop offset="0.00134333" stop-color="white"/>
<stop offset="1" stop-color="white" stop-opacity="0"/>
</radialGradient>
<radialGradient id="paint9_radial_111_633" cx="0" cy="0" r="1" gradientUnits="userSpaceOnUse" gradientTransform="translate(12.616 47.56) scale(27.8519 32.428)">
<stop offset="0.00134333" stop-color="#FFED1C" stop-opacity="0.6"/>
<stop offset="0.9477" stop-color="#FFED1C" stop-opacity="0.0264782"/>
<stop offset="0.9914" stop-color="#FFED1C" stop-opacity="0"/>
</radialGradient>
<radialGradient id="paint10_radial_111_633" cx="0" cy="0" r="1" gradientUnits="userSpaceOnUse" gradientTransform="translate(22.5591 43.3755) rotate(92.8876) scale(8.80255 7.14552)">
<stop offset="0.00134333" stop-color="white"/>
<stop offset="1" stop-color="white" stop-opacity="0"/>
</radialGradient>
<radialGradient id="paint11_radial_111_633" cx="0" cy="0" r="1" gradientUnits="userSpaceOnUse" gradientTransform="translate(27.4249 5.23246) scale(9.99161)">
<stop offset="0.00134333" stop-color="#FFED1C"/>
<stop offset="0.1997" stop-color="#FFEE2B" stop-opacity="0.8013"/>
<stop offset="0.5839" stop-color="#FFF254" stop-opacity="0.4167"/>
<stop offset="1" stop-color="#FFF686" stop-opacity="0"/>
</radialGradient>
<radialGradient id="paint12_radial_111_633" cx="0" cy="0" r="1" gradientUnits="userSpaceOnUse" gradientTransform="translate(10.9493 10.0403) rotate(-56.4116) scale(8.09341 1.83804)">
<stop offset="0.00134333" stop-color="#FFED1C" stop-opacity="0.6"/>
<stop offset="0.9477" stop-color="#FFED1C" stop-opacity="0.0264782"/>
<stop offset="0.9914" stop-color="#FFED1C" stop-opacity="0"/>
</radialGradient>
<radialGradient id="paint13_radial_111_633" cx="0" cy="0" r="1" gradientUnits="userSpaceOnUse" gradientTransform="translate(12.5521 3.69376) rotate(95.0573) scale(7.27234 2.92617)">
<stop offset="0.00134333" stop-color="#FFED1C"/>
<stop offset="0.1997" stop-color="#FFEE2B" stop-opacity="0.8013"/>
<stop offset="0.5839" stop-color="#FFF254" stop-opacity="0.4167"/>
<stop offset="1" stop-color="#FFF686" stop-opacity="0"/>
</radialGradient>
<radialGradient id="paint14_radial_111_633" cx="0" cy="0" r="1" gradientUnits="userSpaceOnUse" gradientTransform="translate(25.2047 3.95045) scale(31.1768)">
<stop offset="0.00134333" stop-color="#FF4C00"/>
<stop offset="0.135" stop-color="#FF5B0C" stop-opacity="0.8661"/>
<stop offset="0.3941" stop-color="#FF842C" stop-opacity="0.6067"/>
<stop offset="0.7491" stop-color="#FFC45F" stop-opacity="0.2512"/>
<stop offset="1" stop-color="#FFF686" stop-opacity="0"/>
</radialGradient>
<radialGradient id="paint15_radial_111_633" cx="0" cy="0" r="1" gradientUnits="userSpaceOnUse" gradientTransform="translate(39.3848 29.2085) scale(16.5481)">
<stop offset="0.00134333" stop-color="#FFED1C"/>
<stop offset="0.1997" stop-color="#FFEE2B" stop-opacity="0.8013"/>
<stop offset="0.5839" stop-color="#FFF254" stop-opacity="0.4167"/>
<stop offset="1" stop-color="#FFF686" stop-opacity="0"/>
</radialGradient>
<radialGradient id="paint16_radial_111_633" cx="0" cy="0" r="1" gradientUnits="userSpaceOnUse" gradientTransform="translate(5.51027 35.1064) scale(17.6382)">
<stop offset="0.00134333" stop-color="#FFED1C"/>
<stop offset="0.1997" stop-color="#FFEE2B" stop-opacity="0.8013"/>
<stop offset="0.5839" stop-color="#FFF254" stop-opacity="0.4167"/>
<stop offset="1" stop-color="#FFF686" stop-opacity="0"/>
</radialGradient>
<radialGradient id="paint17_radial_111_633" cx="0" cy="0" r="1" gradientUnits="userSpaceOnUse" gradientTransform="translate(22.2945 31.5414) rotate(86.1102) scale(30.2129 18.3664)">
<stop stop-color="#FF4C00" stop-opacity="0"/>
<stop offset="0.9874" stop-color="#FF4C00" stop-opacity="0.9888"/>
<stop offset="0.9987" stop-color="#FF4C00"/>
</radialGradient>
</defs>
</svg>
