<svg width="57" height="58" viewBox="0 0 57 58" fill="none" xmlns="http://www.w3.org/2000/svg">
<path d="M6.90288 42.7118C2.96075 46.55 8.13413 50.6716 0.199951 56.2561C0.199951 56.2561 4.86915 57.8256 9.09485 52.4778C10.5478 50.6386 12.2266 49.8658 12.2266 49.8658C12.8016 50.2108 12.3621 52.0826 10.321 53.631C10.321 53.631 13.5054 53.7126 15.4949 51.7125C17.4844 49.7124 18.837 46.8317 18.837 46.8317C20.1993 49.2413 16.7886 52.293 16.7886 52.293C16.7886 52.293 20.0082 51.4496 23.8272 47.6085C26.7979 44.6212 28.9104 37.1969 24.6541 32.9167C20.3978 28.6365 12.7926 29.4173 9.06593 33.1648C7.43485 34.805 5.76465 37.3668 5.55027 39.4719C5.55027 39.4719 8.68765 36.0654 9.79696 37.5009C9.79696 37.5009 4.4903 40.7266 3.63734 43.7897C3.63791 43.7897 6.27904 42.2048 6.90288 42.7118Z" fill="url(#paint0_linear_494_1)"/>
<path d="M3.97081 45.6416C-0.159057 47.3098 2.50023 50.7921 0.726807 52.5857C0.726807 52.5857 3.10366 51.2786 3.0651 48.7207C3.03391 46.6374 3.97081 45.6416 3.97081 45.6416Z" fill="url(#paint1_linear_494_1)"/>
<path d="M4.93604 57.7512C5.99374 57.6246 7.78247 54.5295 10.2109 55.0434C10.2109 55.0434 8.03371 58.2314 4.93604 57.7512Z" fill="url(#paint2_linear_494_1)"/>
<path opacity="0.5" d="M17.9939 51.5353C19.2892 51.0482 21.4976 49.9521 23.8274 47.6092C26.4362 44.9858 28.6111 37.5363 24.3361 33.2373C20.1575 29.0352 12.8307 29.8833 9.31675 33.4175C8.04751 34.6939 6.70511 36.6039 6.17143 38.3696C6.93706 37.6841 8.05601 36.8383 8.99462 36.7493C9.47611 36.7037 9.87197 36.8628 10.1391 37.2084L10.4073 37.5552L9.9423 37.8386C9.89636 37.8666 5.77331 40.3976 4.37986 42.9635C5.33548 42.4741 6.66087 41.9352 7.19964 42.3732L7.5059 42.6224L7.14747 42.972C5.67576 44.4046 5.60544 45.888 5.52377 47.6047C5.40694 50.0565 5.27537 52.8185 1.12793 56.0197C2.53725 56.209 5.7665 56.1178 8.80179 52.2756C10.3217 50.3519 12.0634 49.5358 12.1365 49.5021L12.3356 49.4109L12.4904 49.5038C12.7785 49.6755 12.9067 50.0428 12.8534 50.5361C12.7802 51.2102 12.3537 52.186 11.4015 53.1573C12.4388 53.0232 14.0863 52.6269 15.245 51.4617C17.1432 49.5529 18.4646 46.764 18.4776 46.7361L18.848 45.9473L19.2019 46.573C20.1206 48.199 19.0981 50.1819 17.9939 51.5353Z" fill="url(#paint3_linear_494_1)"/>
<path d="M0.727295 52.5857C1.89162 51.6333 3.08146 49.7724 3.06558 48.7207C3.05083 47.7586 3.31342 46.3973 3.97129 45.6416C1.08345 46.8758 1.48271 48.8262 1.85078 49.7918C2.01128 50.2144 1.79407 51.4719 0.727295 52.5857Z" fill="url(#paint4_radial_494_1)"/>
<path d="M2.96973 55.4485C8.44936 53.6264 9.91653 47.3678 13.4464 46.2819C16.9762 45.196 16.0875 48.5905 14.7286 50.1212C14.7286 50.1212 19.3871 45.4184 19.416 41.7388C19.4449 38.0591 24.35 43.8033 22.8284 46.7929C22.8284 46.7929 30.3242 39.259 24.3359 33.2371C18.3475 27.2152 10.3714 33.2234 10.3714 33.2234C10.3714 33.2234 14.9118 33.0375 14.5194 36.3516C14.5194 36.3516 11.0156 37.6855 8.2605 39.9086C8.2605 39.9086 9.61425 40.0529 10.5404 41.4479C10.5404 41.4479 6.42016 44.3057 6.58292 46.7712C6.79276 49.9364 4.72443 54.8651 2.96973 55.4485Z" fill="url(#paint5_linear_494_1)"/>
<path d="M6.80249 50.6796C9.36592 50.0334 11.6231 44.0047 15.2176 44.3383C17.2042 44.5225 16.7443 46.2471 16.7443 46.2471C16.7443 46.2471 18.123 44.2727 18.4389 41.6031C18.7548 38.9335 23.6945 39.8465 23.4756 44.8544C23.4756 44.8544 28.9081 37.7506 22.3198 33.2389C15.0508 28.2612 9.73909 34.5096 9.73909 34.5096C9.73909 34.5096 14.7055 32.846 15.4773 36.8113C15.4773 36.8113 11.3685 37.9611 9.85706 39.4815C9.85706 39.4815 11.6152 39.7296 12.0348 41.6179C12.0348 41.6179 7.98609 44.5944 8.10746 45.7772C8.4001 48.6322 6.80249 50.6796 6.80249 50.6796Z" fill="url(#paint6_linear_494_1)"/>
<path opacity="0.5" d="M6.90288 42.7118C2.96075 46.55 8.13413 50.6716 0.199951 56.2561C0.199951 56.2561 4.86915 57.8256 9.09485 52.4778C10.5478 50.6386 12.2266 49.8658 12.2266 49.8658C12.8016 50.2108 12.3621 52.0826 10.321 53.631C10.321 53.631 13.5054 53.7126 15.4949 51.7125C17.4844 49.7124 18.837 46.8317 18.837 46.8317C20.1993 49.2413 16.7886 52.293 16.7886 52.293C16.7886 52.293 20.0082 51.4496 23.8272 47.6085C26.7979 44.6212 28.9104 37.1969 24.6541 32.9167C20.3978 28.6365 12.7926 29.4173 9.06593 33.1648C7.43485 34.805 5.76465 37.3668 5.55027 39.4719C5.55027 39.4719 8.68765 36.0654 9.79696 37.5009C9.79696 37.5009 4.4903 40.7266 3.63734 43.7897C3.63791 43.7897 6.27904 42.2048 6.90288 42.7118Z" fill="url(#paint7_radial_494_1)"/>
<path opacity="0.5" d="M6.90288 42.7118C2.96075 46.55 8.13413 50.6716 0.199951 56.2561C0.199951 56.2561 4.86915 57.8256 9.09485 52.4778C10.5478 50.6386 12.2266 49.8658 12.2266 49.8658C12.8016 50.2108 12.3621 52.0826 10.321 53.631C10.321 53.631 13.5054 53.7126 15.4949 51.7125C17.4844 49.7124 18.837 46.8317 18.837 46.8317C20.1993 49.2413 16.7886 52.293 16.7886 52.293C16.7886 52.293 20.0082 51.4496 23.8272 47.6085C26.7979 44.6212 28.9104 37.1969 24.6541 32.9167C20.3978 28.6365 12.7926 29.4173 9.06593 33.1648C7.43485 34.805 5.76465 37.3668 5.55027 39.4719C5.55027 39.4719 8.68765 36.0654 9.79696 37.5009C9.79696 37.5009 4.4903 40.7266 3.63734 43.7897C3.63791 43.7897 6.27904 42.2048 6.90288 42.7118Z" fill="url(#paint8_radial_494_1)"/>
<path d="M21.8248 48.8667C25.6632 44.7548 27.8393 37.4 23.8297 33.3679C19.82 29.3358 12.4416 32.7234 9.16645 35.7649C9.16645 35.7649 11.7713 34.6579 13.8334 35.9862C15.8955 37.3145 10.0126 39.5929 8.78931 43.2092C8.78931 43.2092 14.0358 40.0406 15.6794 41.3831C17.3229 42.7256 15.6561 46.9448 14.0801 48.5297C14.0801 48.5297 17.8385 46.5969 19.8648 44.1006C22.9461 40.3052 21.8248 48.8667 21.8248 48.8667Z" fill="url(#paint9_radial_494_1)"/>
<path opacity="0.5" d="M6.90288 42.7118C2.96075 46.55 8.13413 50.6716 0.199951 56.2561C0.199951 56.2561 4.86915 57.8256 9.09485 52.4778C10.5478 50.6386 12.2266 49.8658 12.2266 49.8658C12.8016 50.2108 12.3621 52.0826 10.321 53.631C10.321 53.631 13.5054 53.7126 15.4949 51.7125C17.4844 49.7124 18.837 46.8317 18.837 46.8317C20.1993 49.2413 16.7886 52.293 16.7886 52.293C16.7886 52.293 20.0082 51.4496 23.8272 47.6085C26.7979 44.6212 28.9104 37.1969 24.6541 32.9167C20.3978 28.6365 12.7926 29.4173 9.06593 33.1648C7.43485 34.805 5.76465 37.3668 5.55027 39.4719C5.55027 39.4719 8.68765 36.0654 9.79696 37.5009C9.79696 37.5009 4.4903 40.7266 3.63734 43.7897C3.63791 43.7897 6.27904 42.2048 6.90288 42.7118Z" fill="url(#paint10_radial_494_1)"/>
<path opacity="0.5" d="M3.97081 45.6416C-0.159057 47.3098 2.50023 50.7921 0.726807 52.5857C0.726807 52.5857 3.10366 51.2786 3.0651 48.7207C3.03391 46.6374 3.97081 45.6416 3.97081 45.6416Z" fill="url(#paint11_radial_494_1)"/>
<path d="M4.93604 57.7508C5.99374 57.6242 7.54598 55.4553 10.2109 55.043C10.2109 55.043 8.03371 58.231 4.93604 57.7508Z" fill="url(#paint12_radial_494_1)"/>
<path opacity="0.5" d="M4.93604 57.7512C5.99374 57.6246 7.78247 54.5295 10.2109 55.0434C10.2109 55.0434 8.03371 58.2314 4.93604 57.7512Z" fill="url(#paint13_radial_494_1)"/>
<path opacity="0.5" d="M6.90288 42.7118C2.96075 46.55 8.13413 50.6716 0.199951 56.2561C0.199951 56.2561 4.86915 57.8256 9.09485 52.4778C10.5478 50.6386 12.2266 49.8658 12.2266 49.8658C12.8016 50.2108 12.3621 52.0826 10.321 53.631C10.321 53.631 13.5054 53.7126 15.4949 51.7125C17.4844 49.7124 18.837 46.8317 18.837 46.8317C20.1993 49.2413 16.7886 52.293 16.7886 52.293C16.7886 52.293 20.0082 51.4496 23.8272 47.6085C26.7979 44.6212 28.9104 37.1969 24.6541 32.9167C20.3978 28.6365 12.7926 29.4173 9.06593 33.1648C7.43485 34.805 5.76465 37.3668 5.55027 39.4719C5.55027 39.4719 8.68765 36.0654 9.79696 37.5009C9.79696 37.5009 4.4903 40.7266 3.63734 43.7897C3.63791 43.7897 6.27904 42.2048 6.90288 42.7118Z" fill="url(#paint14_radial_494_1)"/>
<path opacity="0.25" d="M6.90288 42.7118C2.96075 46.55 8.13413 50.6716 0.199951 56.2561C0.199951 56.2561 4.86915 57.8256 9.09485 52.4778C10.5478 50.6386 12.2266 49.8658 12.2266 49.8658C12.8016 50.2108 12.3621 52.0826 10.321 53.631C10.321 53.631 13.5054 53.7126 15.4949 51.7125C17.4844 49.7124 18.837 46.8317 18.837 46.8317C20.1993 49.2413 16.7886 52.293 16.7886 52.293C16.7886 52.293 20.0082 51.4496 23.8272 47.6085C26.7979 44.6212 28.9104 37.1969 24.6541 32.9167C20.3978 28.6365 12.7926 29.4173 9.06593 33.1648C7.43485 34.805 5.76465 37.3668 5.55027 39.4719C5.55027 39.4719 8.68765 36.0654 9.79696 37.5009C9.79696 37.5009 4.4903 40.7266 3.63734 43.7897C3.63791 43.7897 6.27904 42.2048 6.90288 42.7118Z" fill="url(#paint15_radial_494_1)"/>
<path opacity="0.75" d="M6.90288 42.7118C2.96075 46.55 8.13413 50.6716 0.199951 56.2561C0.199951 56.2561 4.86915 57.8256 9.09485 52.4778C10.5478 50.6386 12.2266 49.8658 12.2266 49.8658C12.8016 50.2108 12.3621 52.0826 10.321 53.631C10.321 53.631 13.5054 53.7126 15.4949 51.7125C17.4844 49.7124 18.837 46.8317 18.837 46.8317C20.1993 49.2413 16.7886 52.293 16.7886 52.293C16.7886 52.293 20.0082 51.4496 23.8272 47.6085C26.7979 44.6212 28.9104 37.1969 24.6541 32.9167C20.3978 28.6365 12.7926 29.4173 9.06593 33.1648C7.43485 34.805 5.76465 37.3668 5.55027 39.4719C5.55027 39.4719 8.68765 36.0654 9.79696 37.5009C9.79696 37.5009 4.4903 40.7266 3.63734 43.7897C3.63791 43.7897 6.27904 42.2048 6.90288 42.7118Z" fill="url(#paint16_radial_494_1)"/>
<path d="M38.7263 38.9328C38.3469 35.1545 39.2174 31.1418 41.2041 27.5112L41.8336 26.3608L32.1198 32.7558L31.3054 38.6283L27.5146 42.2925C28.3313 45.4823 28.3636 48.5939 28.3636 48.5939C34.8012 44.709 38.7263 38.9328 38.7263 38.9328Z" fill="url(#paint17_linear_494_1)"/>
<path d="M28.3636 48.5942C28.3636 48.5942 28.3404 45.4364 27.5146 42.2929L29.1157 40.7456C29.604 41.8332 30.5596 44.2639 30.7978 46.9603C30.0282 47.5158 29.2246 48.0861 28.3636 48.5942Z" fill="url(#paint18_linear_494_1)"/>
<path opacity="0.75" d="M38.7263 38.9328C38.3469 35.1545 39.2174 31.1418 41.2041 27.5112L41.8336 26.3608L32.1198 32.7558L31.3054 38.6283L27.5146 42.2925C28.3313 45.4823 28.3636 48.5939 28.3636 48.5939C34.8012 44.709 38.7263 38.9328 38.7263 38.9328Z" fill="url(#paint19_radial_494_1)"/>
<path d="M39.6711 31.0124C40.0698 29.8204 40.5825 28.6473 41.2035 27.5118L41.5562 26.8668C41.4717 26.816 41.3855 26.7647 41.2987 26.7134L32.1197 32.7558L31.5696 36.7241C33.6629 35.8698 36.6244 34.0961 39.6711 31.0124Z" fill="url(#paint20_linear_494_1)"/>
<path d="M29.1288 16.2874C29.0358 16.057 28.9706 15.8876 28.8895 15.6538C25.27 17.3887 21.1736 17.8678 17.2253 17.1264C17.2253 17.1264 11.3923 20.9686 7.81543 27.7792C7.81543 27.7792 11.153 28.0992 14.6471 29.2991L18.2291 25.4136L24.0308 25.0685C25.329 22.1736 26.9062 19.0358 29.1288 16.2874Z" fill="url(#paint21_linear_494_1)"/>
<path d="M7.81592 27.7792C7.81592 27.7792 11.1535 28.0991 14.6476 29.2991L16.1788 27.6383C14.951 27.0001 12.2855 25.7534 9.33243 25.2407C8.80046 26.034 8.28834 26.8798 7.81592 27.7792Z" fill="url(#paint22_linear_494_1)"/>
<path opacity="0.75" d="M29.1288 16.2874C29.0358 16.057 28.9706 15.8876 28.8895 15.6538C25.27 17.3887 21.1736 17.8678 17.2253 17.1264C17.2253 17.1264 11.3923 20.9686 7.81543 27.7792C7.81543 27.7792 11.153 28.0992 14.6471 29.2991L18.2291 25.4136L24.0308 25.0685C25.329 22.1736 26.9062 19.0358 29.1288 16.2874Z" fill="url(#paint23_radial_494_1)"/>
<path d="M28.8901 15.6538C27.4791 16.746 23.0424 21.0416 21.4993 25.2197L24.0315 25.0691C25.3291 22.1742 27.2948 18.9685 29.5174 16.2196L28.8901 15.6538Z" fill="url(#paint24_linear_494_1)"/>
<path d="M30.418 14.8155C31.9254 17.2752 33.9047 19.7087 36.1199 21.8776C36.2254 21.9809 36.3314 22.0841 36.4381 22.1862C38.3079 23.9781 40.3348 25.5772 42.3799 26.8451C42.3788 26.8462 42.3776 26.8473 42.3765 26.8485C42.5631 26.6671 42.7508 26.4875 42.9351 26.3015C48.248 20.9589 51.3185 16.9587 53.9624 11.8567C52.0745 8.18329 48.9757 5.06711 45.3222 3.16797C40.2486 5.82676 36.2708 8.91443 30.9579 14.2571C30.7741 14.4419 30.596 14.6301 30.4163 14.8172C30.4168 14.816 30.4174 14.816 30.418 14.8155Z" fill="url(#paint25_linear_494_1)"/>
<path d="M53.9623 11.856C57.5579 4.91867 57.1014 1.2048 56.5076 0.607679C55.9138 0.0105613 52.2212 -0.44797 45.322 3.16724C48.9755 5.06638 52.0743 8.18257 53.9623 11.856Z" fill="url(#paint26_linear_494_1)"/>
<path d="M24.3354 32.9612C26.2444 34.8808 27.9968 36.2798 28.4675 36.2832C32.7408 34.4012 37.8518 31.2457 42.3804 26.8446C40.3353 25.5767 38.3084 23.9776 36.4385 22.1857C36.3319 22.0836 36.2259 21.9809 36.1204 21.8771C33.9057 19.7082 31.9259 17.2747 30.4184 14.8149C26.0339 19.3786 22.9011 24.5405 21.0364 28.8481C21.1124 29.3762 22.4786 31.0945 24.3354 32.9612Z" fill="url(#paint27_linear_494_1)"/>
<path opacity="0.75" d="M24.3354 32.9612C26.2444 34.8808 27.9968 36.2798 28.4675 36.2832C32.7408 34.4012 37.8518 31.2457 42.3804 26.8446C40.3353 25.5767 38.3084 23.9776 36.4385 22.1857C36.3319 22.0836 36.2259 21.9809 36.1204 21.8771C33.9057 19.7082 31.9259 17.2747 30.4184 14.8149C26.0339 19.3786 22.9011 24.5405 21.0364 28.8481C21.1124 29.3762 22.4786 31.0945 24.3354 32.9612Z" fill="url(#paint28_radial_494_1)"/>
<path opacity="0.5" d="M36.4379 22.1857C36.3313 22.0836 36.2253 21.9809 36.1198 21.8771C33.9051 19.7082 31.9252 17.2747 30.4178 14.8149C30.3072 14.9301 30.2011 15.0471 30.0917 15.1628C33.1622 20.9977 42.5199 26.54 35.3746 29.4823C30.6838 31.4139 28.5825 33.698 27.4551 35.7357C27.9332 36.0836 28.2905 36.2815 28.4668 36.2827C32.7402 34.4006 37.8512 31.2451 42.3798 26.844C40.3347 25.5768 38.3083 23.9776 36.4379 22.1857Z" fill="url(#paint29_radial_494_1)"/>
<path d="M24.3353 32.9612C22.4785 31.094 21.1123 29.3763 21.0358 28.8481L18.4065 30.0099C18.0963 30.3218 19.8295 32.5694 22.2772 35.0309C24.725 37.4924 26.9606 39.2347 27.2703 38.9233L28.4675 36.2833C27.9967 36.2799 26.2437 34.8809 24.3353 32.9612Z" fill="url(#paint30_linear_494_1)"/>
<path d="M24.3353 32.9612C22.4785 31.094 21.1123 29.3763 21.0358 28.8481L18.4065 30.0099C18.0963 30.3218 19.8295 32.5694 22.2772 35.0309C24.725 37.4924 26.9606 39.2347 27.2703 38.9233L28.4675 36.2833C27.9967 36.2799 26.2437 34.8809 24.3353 32.9612Z" fill="url(#paint31_linear_494_1)"/>
<path d="M53.2376 13.2078C53.2631 13.1588 53.9374 11.9052 53.9629 11.8562C52.0749 8.18281 48.9761 5.06662 45.3227 3.16748C45.2733 3.19314 45.2263 3.21995 45.1775 3.24561C48.7538 5.29475 52.8094 9.90117 53.2376 13.2078Z" fill="url(#paint32_linear_494_1)"/>
<path opacity="0.75" d="M56.5078 0.608167C55.914 0.0110499 52.2214 -0.447481 45.3222 3.16773C40.2487 5.82652 36.2708 8.91419 30.9579 14.2569C30.7741 14.4417 30.596 14.6299 30.4163 14.8169C30.4168 14.8164 30.4174 14.8158 30.418 14.8152C26.0335 19.3794 22.9006 24.5407 21.0359 28.8483C21.1125 29.3764 22.4787 31.0942 24.3355 32.9614C26.2444 34.8811 27.9969 36.28 28.4676 36.2835C32.7409 34.4014 37.8519 31.2459 42.3805 26.8448C42.3794 26.8459 42.3782 26.8471 42.3771 26.8482C42.5637 26.6669 42.7508 26.4872 42.9357 26.3013C48.2486 20.9586 51.3191 16.9584 53.9631 11.8564C57.5581 4.91859 57.1016 1.20528 56.5078 0.608167Z" fill="url(#paint33_radial_494_1)"/>
<path d="M20.2632 41.6128C25.9181 37.0274 30.3502 31.9014 30.4648 31.768L29.5812 30.8794C29.5812 30.8794 24.9693 35.949 19.4534 40.8098L20.2632 41.6128Z" fill="url(#paint34_linear_494_1)"/>
<path d="M29.5812 30.8794C30.6083 28.9112 32.3483 26.4395 34.572 23.7796C34.5175 23.7288 34.4625 23.6797 34.4086 23.6284C31.9983 25.9279 29.6152 28.0113 27.4652 29.85L24.9755 33.5256L21.2228 37.2389C20.5729 38.8991 19.4534 40.8097 19.4534 40.8097C24.9693 35.9489 29.5812 30.8794 29.5812 30.8794Z" fill="url(#paint35_linear_494_1)"/>
<path d="M21.4122 39.0432C21.4156 39.0375 22.7297 36.6461 22.6089 35.8682L21.2228 37.2398C20.5729 38.9 19.4534 40.8106 19.4534 40.8106C20.122 40.2214 20.7765 39.6289 21.4122 39.0432Z" fill="url(#paint36_linear_494_1)"/>
<path d="M30.4706 31.7619C31.2079 29.4966 32.8832 26.9513 35.0122 24.1847C34.8648 24.0524 34.7185 23.9161 34.5727 23.7798C32.349 26.4397 30.609 28.9115 29.5819 30.8796C29.5819 30.8796 24.97 35.9492 19.4541 40.81L20.264 41.613C25.9931 36.9672 30.4706 31.7619 30.4706 31.7619Z" fill="url(#paint37_linear_494_1)"/>
<path d="M20.2632 41.6128C25.9181 37.0274 30.3502 31.9014 30.4648 31.768L29.5812 30.8794C29.5812 30.8794 24.9693 35.949 19.4534 40.8098L20.2632 41.6128Z" fill="url(#paint38_linear_494_1)"/>
<path opacity="0.75" d="M29.5812 30.8794C30.6083 28.9112 32.3483 26.4395 34.572 23.7796C34.5175 23.7288 34.4625 23.6797 34.4086 23.6284C31.9983 25.9279 29.6152 28.0113 27.4652 29.85L24.9755 33.5256L21.2228 37.2389C20.5729 38.8991 19.4534 40.8097 19.4534 40.8097C24.9693 35.9489 29.5812 30.8794 29.5812 30.8794Z" fill="url(#paint39_radial_494_1)"/>
<path opacity="0.75" d="M56.5078 0.608167C55.914 0.0110499 52.2214 -0.447481 45.3222 3.16773C40.2487 5.82652 36.2708 8.91419 30.9579 14.2569C30.7741 14.4417 30.596 14.6299 30.4163 14.8169C30.4168 14.8164 30.4174 14.8158 30.418 14.8152C26.0335 19.3794 22.9006 24.5407 21.0359 28.8483C21.1125 29.3764 22.4787 31.0942 24.3355 32.9614C26.2444 34.8811 27.9969 36.28 28.4676 36.2835C32.7409 34.4014 37.8519 31.2459 42.3805 26.8448C42.3794 26.8459 42.3782 26.8471 42.3771 26.8482C42.5637 26.6669 42.7508 26.4872 42.9357 26.3013C48.2486 20.9586 51.3191 16.9584 53.9631 11.8564C57.5581 4.91859 57.1016 1.20528 56.5078 0.608167Z" fill="url(#paint40_radial_494_1)"/>
<g opacity="0.16">
<path opacity="0.16" d="M52.4637 14.5936C52.4507 14.5936 52.4376 14.5873 52.4297 14.5759C51.9833 13.9468 51.5267 13.3434 51.0339 12.7309C51.0191 12.7127 51.022 12.6859 51.0401 12.6716C51.0583 12.6568 51.0843 12.6596 51.0991 12.6779C51.5931 13.2921 52.0508 13.8972 52.4977 14.5274C52.5114 14.5462 52.5068 14.573 52.4881 14.5867C52.4807 14.5907 52.4722 14.5936 52.4637 14.5936Z" fill="black"/>
<path opacity="0.16" d="M52.9354 9.97564C52.9479 9.95568 52.9422 9.92944 52.9224 9.9169C52.9031 9.90492 52.8764 9.91005 52.864 9.93002C52.759 10.0965 52.6507 10.2659 52.5396 10.4376C49.7113 14.8136 46.7855 18.3878 42.1163 23.1698C40.6213 22.0822 39.1473 20.8361 37.7692 19.4508C36.8544 18.5309 36.0054 17.5648 35.2132 16.5821C40.0213 11.8006 43.6073 8.63483 47.6974 5.56427C47.9225 5.39488 48.1437 5.23063 48.3598 5.07209C48.3785 5.0584 48.3825 5.03159 48.3689 5.01277C48.3553 4.99338 48.3286 4.98939 48.3099 5.00365C48.0938 5.16277 47.8732 5.32702 47.6469 5.4964C43.5556 8.56811 39.9674 11.7351 35.1593 16.5177C34.1543 15.2653 33.2509 13.9844 32.5051 12.7086C32.4932 12.688 32.4671 12.6812 32.4473 12.6938C32.4269 12.7057 32.4206 12.7314 32.4325 12.7519C33.1817 14.0334 34.0897 15.3206 35.0992 16.5782C34.7918 16.8844 34.4957 17.1753 34.1782 17.4952C34.033 17.6406 33.8906 17.7866 33.7483 17.9327L33.632 18.0513C33.6309 18.0524 33.6303 18.053 33.6297 18.0541C33.4545 18.2326 33.281 18.4117 33.1085 18.5908C33.0927 18.6073 33.0927 18.6341 33.1097 18.6507C33.1182 18.6587 33.129 18.6627 33.1392 18.6627C33.1499 18.6627 33.1613 18.6581 33.1698 18.6495C33.3433 18.4693 33.518 18.2897 33.6938 18.1094C33.695 18.1089 33.6955 18.1077 33.6961 18.1072L33.8084 17.9925C33.9507 17.8465 34.0936 17.7011 34.2377 17.5557C34.5542 17.2374 34.8479 16.9483 35.1536 16.6437C35.947 17.6264 36.796 18.5931 37.7102 19.513C39.0952 20.9051 40.5776 22.1581 42.0811 23.2503C42.0828 23.2571 42.076 23.2639 42.0811 23.2696C42.089 23.2776 42.1004 23.2816 42.1106 23.2816C42.114 23.2816 42.1163 23.2788 42.1191 23.2782C42.8893 23.836 43.6634 24.3646 44.4364 24.8215C44.4432 24.8255 44.4506 24.8272 44.4579 24.8272C44.4721 24.8272 44.4863 24.8198 44.4942 24.8061C44.5056 24.7855 44.4994 24.7599 44.4795 24.7479C43.7144 24.2962 42.9488 23.7732 42.186 23.2217C46.8546 18.4397 49.7822 14.8632 52.6116 10.4844C52.7216 10.3121 52.8299 10.1427 52.9354 9.97564Z" fill="black"/>
</g>
<path opacity="0.75" d="M27.2761 35.0859C31.1581 32.8109 35.9481 29.332 40.4517 24.9058C40.4506 24.9069 40.4495 24.908 40.4483 24.9092" fill="url(#paint41_radial_494_1)"/>
<path d="M44.6371 15.2809C42.4735 17.2855 39.2755 17.3015 37.4936 15.3162C35.7117 13.331 36.0207 10.0967 38.1843 8.09208C40.3479 6.08743 43.546 6.07146 45.3279 8.05672C47.1098 10.042 46.8007 13.2762 44.6371 15.2809Z" fill="url(#paint42_linear_494_1)"/>
<path d="M43.7065 14.1603C41.9331 15.8039 39.3106 15.817 37.8497 14.1893C36.3888 12.5622 36.6423 9.91029 38.4157 8.26722C40.1891 6.62357 42.8115 6.61046 44.2725 8.23813C45.7334 9.86523 45.4799 12.5166 43.7065 14.1603Z" fill="url(#paint43_linear_494_1)"/>
<path d="M43.2988 13.7194C41.717 15.1851 39.3793 15.1965 38.0766 13.7456C36.7739 12.2947 37.0002 9.9302 38.5814 8.46507C40.1625 6.99993 42.5008 6.98796 43.8035 8.43883C45.1062 9.88971 44.8805 12.2537 43.2988 13.7194Z" fill="url(#paint44_radial_494_1)"/>
<path opacity="0.5" d="M43.2988 13.7194C41.717 15.1851 39.3793 15.1965 38.0766 13.7456C36.7739 12.2947 37.0002 9.9302 38.5814 8.46507C40.1625 6.99993 42.5008 6.98796 43.8035 8.43883C45.1062 9.88971 44.8805 12.2537 43.2988 13.7194Z" fill="url(#paint45_radial_494_1)"/>
<path opacity="0.5" d="M43.4883 9.51082C44.0855 10.1758 44.4059 11.0039 44.4694 11.8691C44.8421 10.668 44.6373 9.36654 43.8036 8.43807C42.5009 6.98719 40.1632 6.9986 38.5814 8.4643C38.4226 8.61144 38.2814 8.76942 38.1504 8.93253C39.934 7.84779 42.1652 8.03657 43.4883 9.51082Z" fill="black"/>
<path d="M43.8039 8.43807C42.5012 6.98719 40.1635 6.9986 38.5818 8.46431C37.0001 9.93001 36.7744 12.294 38.0771 13.7449C38.2126 13.8954 38.3447 14.0072 38.2631 13.9302C37.0971 12.7576 37.4543 10.3543 38.9578 8.84242C40.1522 7.64134 42.4814 7.18908 43.8113 8.4472" fill="url(#paint46_linear_494_1)"/>
<path opacity="0.5" d="M43.804 8.43854L43.8113 8.44766C42.4814 7.18956 40.1522 7.64181 38.9578 8.84289C37.5201 10.2886 37.1339 12.5459 38.1213 13.7664C38.2773 13.8457 38.3368 14.0014 38.2625 13.9312C38.2115 13.8799 38.1667 13.8229 38.1213 13.7664C38.1066 13.759 38.0924 13.7516 38.0765 13.7453C39.3792 15.1962 41.7169 15.1848 43.2986 13.7191C44.8804 12.2539 45.1067 9.88998 43.804 8.43854Z" fill="url(#paint47_radial_494_1)"/>
<path d="M53.986 11.8736C53.9633 11.8736 53.9412 11.8611 53.9299 11.8394C52.0408 8.16317 48.9908 5.09431 45.3431 3.19859C45.3119 3.18262 45.3 3.14441 45.3159 3.11305C45.3317 3.08168 45.3703 3.0697 45.4009 3.08567C49.0719 4.99394 52.1412 8.08161 54.0421 11.7812C54.058 11.8126 54.0461 11.8508 54.0149 11.8668C54.0059 11.8713 53.9962 11.8736 53.986 11.8736Z" fill="#008EE6"/>
<path d="M42.3797 26.908C42.3684 26.908 42.357 26.9051 42.3468 26.8983C40.3426 25.6561 38.2839 24.0421 36.3942 22.2314C36.2875 22.1293 36.1809 22.0261 36.0754 21.9223C33.8239 19.7175 31.8491 17.2714 30.3638 14.8481C30.3457 14.8185 30.3547 14.7791 30.3848 14.7609C30.4137 14.7426 30.4534 14.7517 30.4716 14.7814C31.9512 17.1961 33.9198 19.6336 36.1639 21.831C36.2694 21.9343 36.3754 22.0369 36.4815 22.139C38.365 23.9435 40.4157 25.5518 42.4126 26.7893C42.4427 26.8076 42.4517 26.8469 42.4336 26.8766C42.4217 26.8971 42.4013 26.908 42.3797 26.908Z" fill="#008EE6"/>
<defs>
<linearGradient id="paint0_linear_494_1" x1="23.7117" y1="30.6924" x2="-3.30513" y2="66.1601" gradientUnits="userSpaceOnUse">
<stop stop-color="#FF0000"/>
<stop offset="0.2317" stop-color="#FF1500"/>
<stop offset="0.7367" stop-color="#FF3D00"/>
<stop offset="0.9987" stop-color="#FF4C00"/>
</linearGradient>
<linearGradient id="paint1_linear_494_1" x1="18.5589" y1="27.3414" x2="-8.1324" y2="62.3817" gradientUnits="userSpaceOnUse">
<stop stop-color="#FF0000"/>
<stop offset="0.2317" stop-color="#FF1500"/>
<stop offset="0.7367" stop-color="#FF3D00"/>
<stop offset="0.9987" stop-color="#FF4C00"/>
</linearGradient>
<linearGradient id="paint2_linear_494_1" x1="26.127" y1="31.7686" x2="-1.25258" y2="67.7121" gradientUnits="userSpaceOnUse">
<stop stop-color="#FF0000"/>
<stop offset="0.2317" stop-color="#FF1500"/>
<stop offset="0.7367" stop-color="#FF3D00"/>
<stop offset="0.9987" stop-color="#FF4C00"/>
</linearGradient>
<linearGradient id="paint3_linear_494_1" x1="18.3967" y1="36.276" x2="0.963479" y2="72.2935" gradientUnits="userSpaceOnUse">
<stop stop-color="#FF8000"/>
<stop offset="0.6388" stop-color="#FF5B00"/>
<stop offset="0.9987" stop-color="#FF4C00"/>
</linearGradient>
<radialGradient id="paint4_radial_494_1" cx="0" cy="0" r="1" gradientUnits="userSpaceOnUse" gradientTransform="translate(-6.21399 55.11) rotate(-134.84) scale(13.9723 17.7423)">
<stop offset="0.00134333" stop-color="#FFED1C" stop-opacity="0.6"/>
<stop offset="0.9477" stop-color="#FFED1C" stop-opacity="0.0264782"/>
<stop offset="0.9914" stop-color="#FFED1C" stop-opacity="0"/>
</radialGradient>
<linearGradient id="paint5_linear_494_1" x1="4.38674" y1="57.7754" x2="20.0939" y2="35.3787" gradientUnits="userSpaceOnUse">
<stop stop-color="#FF8000"/>
<stop offset="0.022669" stop-color="#FE7F02" stop-opacity="0.9773"/>
<stop offset="0.6663" stop-color="#ED582A" stop-opacity="0.3337"/>
<stop offset="1" stop-color="#E74939" stop-opacity="0"/>
</linearGradient>
<linearGradient id="paint6_linear_494_1" x1="22.2977" y1="34.5254" x2="8.12976" y2="47.1484" gradientUnits="userSpaceOnUse">
<stop stop-color="#FFBC47"/>
<stop offset="0.1869" stop-color="#FFB137" stop-opacity="0.8131"/>
<stop offset="0.7223" stop-color="#FF940F" stop-opacity="0.2777"/>
<stop offset="1" stop-color="#FF8900" stop-opacity="0"/>
</linearGradient>
<radialGradient id="paint7_radial_494_1" cx="0" cy="0" r="1" gradientUnits="userSpaceOnUse" gradientTransform="translate(18.7871 38.2248) rotate(-134.84) scale(10.8083 11.1405)">
<stop offset="0.00134333" stop-color="#FFBC47"/>
<stop offset="0.2941" stop-color="#FFBF4B" stop-opacity="0.7068"/>
<stop offset="0.5624" stop-color="#FEC656" stop-opacity="0.4382"/>
<stop offset="0.8201" stop-color="#FCD368" stop-opacity="0.1801"/>
<stop offset="1" stop-color="#FBE07A" stop-opacity="0"/>
</radialGradient>
<radialGradient id="paint8_radial_494_1" cx="0" cy="0" r="1" gradientUnits="userSpaceOnUse" gradientTransform="translate(18.3893 38.6248) rotate(-134.84) scale(10.4752 10.7972)">
<stop offset="0.00134333" stop-color="white"/>
<stop offset="1" stop-color="white" stop-opacity="0"/>
</radialGradient>
<radialGradient id="paint9_radial_494_1" cx="0" cy="0" r="1" gradientUnits="userSpaceOnUse" gradientTransform="translate(23.3614 40.139) rotate(-134.84) scale(12.8681 19.0274)">
<stop offset="0.00134333" stop-color="#FFED1C" stop-opacity="0.6"/>
<stop offset="0.9477" stop-color="#FFED1C" stop-opacity="0.0264782"/>
<stop offset="0.9914" stop-color="#FFED1C" stop-opacity="0"/>
</radialGradient>
<radialGradient id="paint10_radial_494_1" cx="0" cy="0" r="1" gradientUnits="userSpaceOnUse" gradientTransform="translate(18.3961 38.6211) rotate(-42.887) scale(5.1624 3.30387)">
<stop offset="0.00134333" stop-color="white"/>
<stop offset="1" stop-color="white" stop-opacity="0"/>
</radialGradient>
<radialGradient id="paint11_radial_494_1" cx="0" cy="0" r="1" gradientUnits="userSpaceOnUse" gradientTransform="translate(1.02434 52.8983) rotate(-134.84) scale(4.61632 5.8619)">
<stop offset="0.00134333" stop-color="#FFED1C"/>
<stop offset="0.1997" stop-color="#FFEE2B" stop-opacity="0.8013"/>
<stop offset="0.5839" stop-color="#FFF254" stop-opacity="0.4167"/>
<stop offset="1" stop-color="#FFF686" stop-opacity="0"/>
</radialGradient>
<radialGradient id="paint12_radial_494_1" cx="0" cy="0" r="1" gradientUnits="userSpaceOnUse" gradientTransform="translate(8.38152 56.2953) rotate(162.506) scale(4.45416 0.905376)">
<stop offset="0.00134333" stop-color="#FFED1C" stop-opacity="0.6"/>
<stop offset="0.9477" stop-color="#FFED1C" stop-opacity="0.0264782"/>
<stop offset="0.9914" stop-color="#FFED1C" stop-opacity="0"/>
</radialGradient>
<radialGradient id="paint13_radial_494_1" cx="0" cy="0" r="1" gradientUnits="userSpaceOnUse" gradientTransform="translate(5.23335 58.4105) rotate(-41.1778) scale(4.25944 1.35434)">
<stop offset="0.00134333" stop-color="#FFED1C"/>
<stop offset="0.1997" stop-color="#FFEE2B" stop-opacity="0.8013"/>
<stop offset="0.5839" stop-color="#FFF254" stop-opacity="0.4167"/>
<stop offset="1" stop-color="#FFF686" stop-opacity="0"/>
</radialGradient>
<radialGradient id="paint14_radial_494_1" cx="0" cy="0" r="1" gradientUnits="userSpaceOnUse" gradientTransform="translate(1.21723 54.1589) rotate(-134.84) scale(14.4042 18.2908)">
<stop offset="0.00134333" stop-color="#FF4C00"/>
<stop offset="0.135" stop-color="#FF5B0C" stop-opacity="0.8661"/>
<stop offset="0.3941" stop-color="#FF842C" stop-opacity="0.6067"/>
<stop offset="0.7491" stop-color="#FFC45F" stop-opacity="0.2512"/>
<stop offset="1" stop-color="#FFF686" stop-opacity="0"/>
</radialGradient>
<radialGradient id="paint15_radial_494_1" cx="0" cy="0" r="1" gradientUnits="userSpaceOnUse" gradientTransform="translate(7.04668 39.0058) rotate(-134.84) scale(7.64553 9.70846)">
<stop offset="0.00134333" stop-color="#FFED1C"/>
<stop offset="0.1997" stop-color="#FFEE2B" stop-opacity="0.8013"/>
<stop offset="0.5839" stop-color="#FFF254" stop-opacity="0.4167"/>
<stop offset="1" stop-color="#FFF686" stop-opacity="0"/>
</radialGradient>
<radialGradient id="paint16_radial_494_1" cx="0" cy="0" r="1" gradientUnits="userSpaceOnUse" gradientTransform="translate(18.3748 39.3592) rotate(-134.84) scale(15.9878 20.3016)">
<stop offset="0.00134333" stop-color="#FFED1C"/>
<stop offset="0.1997" stop-color="#FFEE2B" stop-opacity="0.8013"/>
<stop offset="0.5839" stop-color="#FFF254" stop-opacity="0.4167"/>
<stop offset="1" stop-color="#FFF686" stop-opacity="0"/>
</radialGradient>
<linearGradient id="paint17_linear_494_1" x1="22.3626" y1="50.194" x2="39.7435" y2="31.5544" gradientUnits="userSpaceOnUse">
<stop stop-color="#BD2719"/>
<stop offset="0.2151" stop-color="#D41A10"/>
<stop offset="0.5049" stop-color="#EC0C07"/>
<stop offset="0.774" stop-color="#FA0302"/>
<stop offset="1" stop-color="#FF0000"/>
</linearGradient>
<linearGradient id="paint18_linear_494_1" x1="32.407" y1="41.4155" x2="26.957" y2="46.7384" gradientUnits="userSpaceOnUse">
<stop stop-color="#FC8D41"/>
<stop offset="0.0900324" stop-color="#FC7837"/>
<stop offset="0.294" stop-color="#FD4D24"/>
<stop offset="0.4922" stop-color="#FE2C14"/>
<stop offset="0.6802" stop-color="#FF1409"/>
<stop offset="0.854" stop-color="#FF0502"/>
<stop offset="1" stop-color="#FF0000"/>
</linearGradient>
<radialGradient id="paint19_radial_494_1" cx="0" cy="0" r="1" gradientUnits="userSpaceOnUse" gradientTransform="translate(19.8706 47.8278) rotate(45.1602) scale(23.4398 23.4394)">
<stop offset="0.00134333" stop-color="#FFED1C"/>
<stop offset="0.1997" stop-color="#FFEE2B" stop-opacity="0.8013"/>
<stop offset="0.5839" stop-color="#FFF254" stop-opacity="0.4167"/>
<stop offset="1" stop-color="#FFF686" stop-opacity="0"/>
</radialGradient>
<linearGradient id="paint20_linear_494_1" x1="32.8113" y1="35.4784" x2="59.7616" y2="4.41613" gradientUnits="userSpaceOnUse">
<stop stop-color="#BD2719"/>
<stop offset="0.2151" stop-color="#D41A10"/>
<stop offset="0.5049" stop-color="#EC0C07"/>
<stop offset="0.774" stop-color="#FA0302"/>
<stop offset="1" stop-color="#FF0000"/>
</linearGradient>
<linearGradient id="paint21_linear_494_1" x1="5.74119" y1="28.4448" x2="22.0921" y2="20.4649" gradientUnits="userSpaceOnUse">
<stop stop-color="#BD2719"/>
<stop offset="0.2151" stop-color="#D41A10"/>
<stop offset="0.5049" stop-color="#EC0C07"/>
<stop offset="0.774" stop-color="#FA0302"/>
<stop offset="1" stop-color="#FF0000"/>
</linearGradient>
<linearGradient id="paint22_linear_494_1" x1="15.055" y1="23.6909" x2="9.89149" y2="29.7944" gradientUnits="userSpaceOnUse">
<stop stop-color="#FC8D41"/>
<stop offset="0.0900324" stop-color="#FC7837"/>
<stop offset="0.294" stop-color="#FD4D24"/>
<stop offset="0.4922" stop-color="#FE2C14"/>
<stop offset="0.6802" stop-color="#FF1409"/>
<stop offset="0.854" stop-color="#FF0502"/>
<stop offset="1" stop-color="#FF0000"/>
</linearGradient>
<radialGradient id="paint23_radial_494_1" cx="0" cy="0" r="1" gradientUnits="userSpaceOnUse" gradientTransform="translate(17.5477 38.4839) rotate(45.1603) scale(25.2118 25.2114)">
<stop offset="0.00134333" stop-color="#FFED1C"/>
<stop offset="0.1997" stop-color="#FFEE2B" stop-opacity="0.8013"/>
<stop offset="0.5839" stop-color="#FFF254" stop-opacity="0.4167"/>
<stop offset="1" stop-color="#FFF686" stop-opacity="0"/>
</radialGradient>
<linearGradient id="paint24_linear_494_1" x1="28.3033" y1="20.2903" x2="1.9889" y2="21.514" gradientUnits="userSpaceOnUse">
<stop stop-color="#BD2719"/>
<stop offset="0.2151" stop-color="#D41A10"/>
<stop offset="0.5049" stop-color="#EC0C07"/>
<stop offset="0.774" stop-color="#FA0302"/>
<stop offset="1" stop-color="#FF0000"/>
</linearGradient>
<linearGradient id="paint25_linear_494_1" x1="37.8234" y1="8.94534" x2="48.472" y2="19.5346" gradientUnits="userSpaceOnUse">
<stop stop-color="#BBCACC"/>
<stop offset="0.3717" stop-color="white"/>
<stop offset="1" stop-color="#99AFB3"/>
</linearGradient>
<linearGradient id="paint26_linear_494_1" x1="55.7732" y1="8.2246" x2="49.9678" y2="0.732487" gradientUnits="userSpaceOnUse">
<stop stop-color="#008EE6"/>
<stop offset="0.688" stop-color="#80DAFE"/>
<stop offset="0.7325" stop-color="#76D5FB"/>
<stop offset="0.8071" stop-color="#5CC8F3"/>
<stop offset="0.9026" stop-color="#32B2E6"/>
<stop offset="1" stop-color="#0099D6"/>
</linearGradient>
<linearGradient id="paint27_linear_494_1" x1="35.4899" y1="32.0032" x2="23.3887" y2="20.0341" gradientUnits="userSpaceOnUse">
<stop stop-color="#008EE6"/>
<stop offset="0.688" stop-color="#80DAFE"/>
<stop offset="0.7325" stop-color="#76D5FB"/>
<stop offset="0.8071" stop-color="#5CC8F3"/>
<stop offset="0.9026" stop-color="#32B2E6"/>
<stop offset="1" stop-color="#0099D6"/>
</linearGradient>
<radialGradient id="paint28_radial_494_1" cx="0" cy="0" r="1" gradientUnits="userSpaceOnUse" gradientTransform="translate(27.3177 35.9967) rotate(45.1602) scale(11.4827 21.0164)">
<stop stop-opacity="0.75"/>
<stop offset="1" stop-opacity="0"/>
</radialGradient>
<radialGradient id="paint29_radial_494_1" cx="0" cy="0" r="1" gradientUnits="userSpaceOnUse" gradientTransform="translate(40.662 33.2841) rotate(45.1601) scale(11.4827 21.0164)">
<stop stop-opacity="0.75"/>
<stop offset="1" stop-opacity="0"/>
</radialGradient>
<linearGradient id="paint30_linear_494_1" x1="19.9084" y1="28.7456" x2="27.5101" y2="38.6711" gradientUnits="userSpaceOnUse">
<stop/>
<stop offset="0.1962" stop-color="#4D4D4C"/>
<stop offset="0.7655"/>
</linearGradient>
<linearGradient id="paint31_linear_494_1" x1="19.9084" y1="28.7456" x2="27.5101" y2="38.6711" gradientUnits="userSpaceOnUse">
<stop stop-opacity="0"/>
<stop offset="0.1975" stop-color="#CFDCDE" stop-opacity="0.5"/>
<stop offset="0.7655" stop-opacity="0"/>
</linearGradient>
<linearGradient id="paint32_linear_494_1" x1="35.716" y1="5.07353" x2="53.0348" y2="9.00591" gradientUnits="userSpaceOnUse">
<stop stop-color="#BBCACC"/>
<stop offset="0.3717" stop-color="white"/>
<stop offset="1" stop-color="#99AFB3"/>
</linearGradient>
<radialGradient id="paint33_radial_494_1" cx="0" cy="0" r="1" gradientUnits="userSpaceOnUse" gradientTransform="translate(40.8556 26.8843) rotate(44.3944) scale(7.40813 23.9931)">
<stop stop-color="#440063" stop-opacity="0.75"/>
<stop offset="1" stop-color="#420061" stop-opacity="0"/>
</radialGradient>
<linearGradient id="paint34_linear_494_1" x1="18.9924" y1="40.0907" x2="38.9481" y2="27.2959" gradientUnits="userSpaceOnUse">
<stop stop-color="#BD2719"/>
<stop offset="0.2151" stop-color="#D41A10"/>
<stop offset="0.5049" stop-color="#EC0C07"/>
<stop offset="0.774" stop-color="#FA0302"/>
<stop offset="1" stop-color="#FF0000"/>
</linearGradient>
<linearGradient id="paint35_linear_494_1" x1="15.7614" y1="40.7709" x2="26.0622" y2="32.972" gradientUnits="userSpaceOnUse">
<stop stop-color="#BD2719"/>
<stop offset="0.2151" stop-color="#D41A10"/>
<stop offset="0.5049" stop-color="#EC0C07"/>
<stop offset="0.774" stop-color="#FA0302"/>
<stop offset="1" stop-color="#FF0000"/>
</linearGradient>
<linearGradient id="paint36_linear_494_1" x1="25.5195" y1="34.1592" x2="19.6169" y2="39.6417" gradientUnits="userSpaceOnUse">
<stop stop-color="#FC8D41"/>
<stop offset="0.0900324" stop-color="#FC7837"/>
<stop offset="0.294" stop-color="#FD4D24"/>
<stop offset="0.4922" stop-color="#FE2C14"/>
<stop offset="0.6802" stop-color="#FF1409"/>
<stop offset="0.854" stop-color="#FF0502"/>
<stop offset="1" stop-color="#FF0000"/>
</linearGradient>
<linearGradient id="paint37_linear_494_1" x1="25.3272" y1="37.9811" x2="32.3558" y2="17.98" gradientUnits="userSpaceOnUse">
<stop stop-color="#BD2719"/>
<stop offset="0.2151" stop-color="#D41A10"/>
<stop offset="0.5049" stop-color="#EC0C07"/>
<stop offset="0.774" stop-color="#FA0302"/>
<stop offset="1" stop-color="#FF0000"/>
</linearGradient>
<linearGradient id="paint38_linear_494_1" x1="18.9924" y1="40.0907" x2="38.9481" y2="27.2959" gradientUnits="userSpaceOnUse">
<stop stop-color="#BD2719"/>
<stop offset="0.2151" stop-color="#D41A10"/>
<stop offset="0.5049" stop-color="#EC0C07"/>
<stop offset="0.774" stop-color="#FA0302"/>
<stop offset="1" stop-color="#FF0000"/>
</linearGradient>
<radialGradient id="paint39_radial_494_1" cx="0" cy="0" r="1" gradientUnits="userSpaceOnUse" gradientTransform="translate(18.8393 38.3545) rotate(-39.2068) scale(17.6552 5.92728)">
<stop offset="0.00134333" stop-color="#FFED1C"/>
<stop offset="0.1997" stop-color="#FFEE2B" stop-opacity="0.8013"/>
<stop offset="0.5839" stop-color="#FFF254" stop-opacity="0.4167"/>
<stop offset="1" stop-color="#FFF686" stop-opacity="0"/>
</radialGradient>
<radialGradient id="paint40_radial_494_1" cx="0" cy="0" r="1" gradientUnits="userSpaceOnUse" gradientTransform="translate(35.7453 14.7709) rotate(44.3944) scale(7.40813 23.9931)">
<stop stop-color="white" stop-opacity="0.5"/>
<stop offset="1" stop-color="white" stop-opacity="0"/>
</radialGradient>
<radialGradient id="paint41_radial_494_1" cx="0" cy="0" r="1" gradientUnits="userSpaceOnUse" gradientTransform="translate(34.1081 31.7695) rotate(44.0246) scale(1.79864 8.63812)">
<stop stop-color="#440063" stop-opacity="0.75"/>
<stop offset="1" stop-color="#420061" stop-opacity="0"/>
</radialGradient>
<linearGradient id="paint42_linear_494_1" x1="38.6231" y1="17.7227" x2="44.2291" y2="5.7182" gradientUnits="userSpaceOnUse">
<stop stop-color="#BD2719"/>
<stop offset="0.2151" stop-color="#D41A10"/>
<stop offset="0.5049" stop-color="#EC0C07"/>
<stop offset="0.774" stop-color="#FA0302"/>
<stop offset="1" stop-color="#FF0000"/>
</linearGradient>
<linearGradient id="paint43_linear_494_1" x1="42.5821" y1="6.13638" x2="39.5263" y2="16.2252" gradientUnits="userSpaceOnUse">
<stop stop-color="#FC8D41"/>
<stop offset="0.0900324" stop-color="#FC7837"/>
<stop offset="0.294" stop-color="#FD4D24"/>
<stop offset="0.4922" stop-color="#FE2C14"/>
<stop offset="0.6802" stop-color="#FF1409"/>
<stop offset="0.854" stop-color="#FF0502"/>
<stop offset="1" stop-color="#FF0000"/>
</linearGradient>
<radialGradient id="paint44_radial_494_1" cx="0" cy="0" r="1" gradientUnits="userSpaceOnUse" gradientTransform="translate(39.5365 11.2285) rotate(45.1565) scale(9.7965 9.79568)">
<stop stop-color="#512D00"/>
<stop offset="1"/>
</radialGradient>
<radialGradient id="paint45_radial_494_1" cx="0" cy="0" r="1" gradientUnits="userSpaceOnUse" gradientTransform="translate(41.4161 9.30578) scale(8.57066 8.61878)">
<stop offset="0.4873" stop-color="#F5CBC0" stop-opacity="0"/>
<stop offset="1" stop-color="#E67E62"/>
</radialGradient>
<linearGradient id="paint46_linear_494_1" x1="40.6224" y1="8.0935" x2="40.9915" y2="1.57826" gradientUnits="userSpaceOnUse">
<stop stop-color="#BD2719"/>
<stop offset="0.0422031" stop-color="#B42717"/>
<stop offset="0.257" stop-color="#89250F"/>
<stop offset="0.4654" stop-color="#682408"/>
<stop offset="0.6634" stop-color="#502304"/>
<stop offset="0.8464" stop-color="#412201"/>
<stop offset="1" stop-color="#3C2200"/>
</linearGradient>
<radialGradient id="paint47_radial_494_1" cx="0" cy="0" r="1" gradientUnits="userSpaceOnUse" gradientTransform="translate(29.3247 7.19542) scale(11.6221 11.6873)">
<stop stop-color="white" stop-opacity="0.5"/>
<stop offset="1" stop-color="white" stop-opacity="0"/>
</radialGradient>
</defs>
</svg>
